<?xml version="1.0" encoding="UTF-8"?>
<svg width="112px" height="112px" viewBox="0 0 112 112" version="1.1" xmlns="http://www.w3.org/2000/svg" xmlns:xlink="http://www.w3.org/1999/xlink">
    <!-- Generator: Sketch 41.1 (35376) - http://www.bohemiancoding.com/sketch -->
    <title>Slice</title>
    <desc>Created with Sketch.</desc>
    <defs></defs>
    <g id="Page-1" stroke="none" stroke-width="1" fill="none" fill-rule="evenodd">
        <g id="Light-Bulb" transform="translate(20.000000, 3.000000)">
            <path d="M69.7838535,31.5732858 C68.0359846,15.0926922 54.7517302,1.90833919 38.320984,0.173411455 C37.2722217,0.173411455 36.2234593,0 34.9999716,0 C33.7764838,0 32.7277215,0.173411455 31.6789592,0.173411455 C15.248213,2.08175064 1.96395855,15.2661036 0.216089629,31.5732858 C-1.00739813,42.6758882 3.01272087,53.605079 11.0533685,61.2382325 C15.4231432,65.4017338 18.2199793,70.2590842 19.2687416,74.9430231 L19.2687416,95.4135033 C19.2687416,96.4543786 19.9678482,97.1482277 21.0166106,97.1482277 L23.6385163,97.1482277 L26.7848033,101.311729 C28.1830165,103.046657 30.1058157,104.087532 32.3780658,104.087532 L37.6218774,104.087532 C39.8941274,104.087532 41.9916521,103.046657 43.2153447,101.311932 L46.3616316,97.148431 L48.9835374,97.148431 C50.0322997,97.148431 50.7314063,96.4545819 50.7314063,95.4137066 L50.7314063,74.9430231 C51.6054432,70.2590842 54.5767999,65.4017338 58.9467795,61.2382325 C64.5092169,55.8375935 68.1476358,49.025468 69.4568072,41.6635008 C70.0400288,38.3838245 70.1609866,34.9950262 69.7838535,31.5732858 Z M40.4185086,99.2301817 C39.719402,100.097646 38.6706397,100.618083 37.6218774,100.618083 L32.3780658,100.618083 C31.3293035,100.618083 30.2805411,100.097646 29.5814345,99.2301817 L28.0082911,97.148431 L41.9918569,97.148431 L40.4185086,99.2301817 Z M47.9977984,71.5278825 C49.5508957,66.9734963 52.5171421,62.5885519 56.4995991,58.6360442 C63.8409353,51.6967398 67.336878,41.982039 66.287706,31.920312 C64.7145625,17.1746461 52.6537959,5.37799135 37.796398,3.64326692 C36.9225659,3.64326692 36.0485291,3.46985546 34.9997667,3.46985546 C33.9510044,3.46985546 33.0771724,3.64326692 32.2031355,3.64326692 C17.3457376,5.37799135 5.45969638,17.1746461 3.71182747,31.920312 C2.66306515,41.982039 6.15900782,51.6969431 13.500344,58.6360442 C17.5048398,62.6104249 20.4818464,67.0218709 22.0277991,71.6034665 L22.0277991,94.0012718 L47.9977984,94.0012718 L47.9977984,71.5278825 Z" id="Shape" fill="#FFFFFF"></path>
            <path d="M32.5,95 L32.2195955,38.1370508 C32.2195955,35.8189577 30.230338,33.9397719 27.7764644,33.9397719 C25.3225909,33.9397719 23.3333333,35.8189577 23.3333333,38.1370508 C23.3333333,40.4551438 25.3225909,42.3343296 27.7764644,42.3343296 L44.0679451,42.3343296" id="Path-6" stroke="#FFFFFF" stroke-width="2"></path>
            <path d="M39.5,95.5 L39.8483496,38.1370508 C39.8483496,35.8189577 41.8376071,33.9397719 44.2914807,33.9397719 C46.7453542,33.9397719 48.7346117,35.8189577 48.7346117,38.1370508 C48.7346117,40.4551438 46.7453542,42.3343296 44.2914807,42.3343296 L28,42.3343296" id="Path-6" stroke="#FFFFFF" stroke-width="2"></path>
        </g>
    </g>
</svg>