
<!-- Generator: Adobe Illustrator 19.0.0, SVG Export Plug-In . SVG Version: 6.00 Build 0)  -->
<svg xmlns="http://www.w3.org/2000/svg" xmlns:xlink="http://www.w3.org/1999/xlink" version="1.1" id="Layer_1" x="0px" y="0px" viewBox="0 0 512 512" style="enable-background:new 0 0 512 512;" xml:space="preserve" width="512px" height="512px">
<g transform="translate(1 1)">
	<g>
		<g>
			<path d="M58.733,395.8H127c5.12,0,8.533-3.413,8.533-8.533v-102.4c0-5.12-3.413-8.533-8.533-8.533H58.733     c-5.12,0-8.533,3.413-8.533,8.533v102.4C50.2,392.387,53.613,395.8,58.733,395.8z M118.467,378.733H101.4V293.4h17.067V378.733z      M67.267,293.4h17.067v85.333H67.267V293.4z" fill="white" />
			<path d="M502.467,191h-9.387L476.867,45.08c-0.853-4.267-4.267-7.68-8.533-7.68H41.667c-4.267,0-7.68,3.413-8.533,7.68L16.92,191     H7.533C2.413,191-1,194.413-1,199.533v51.2c0,5.12,3.413,8.533,8.533,8.533h8.533v204.8c0,5.12,3.413,8.533,8.533,8.533h136.533     h76.8h102.4h76.8H485.4c5.12,0,8.533-3.413,8.533-8.533v-204.8h8.533c5.12,0,8.533-3.413,8.533-8.533v-51.2     C511,194.413,507.587,191,502.467,191z M49.347,54.467h411.307L476.013,191h-24.747v-17.067c0-3.413-1.707-5.973-4.267-7.68     L293.4,80.92c-2.56-1.707-5.973-1.707-8.533,0l-153.6,85.333c-2.56,1.707-4.267,4.267-4.267,7.68V191H33.987L49.347,54.467z      M425.667,293.4h17.067v85.333h-17.067V293.4z M284.867,122.733l-140.8,78.507v-1.707V178.2l145.067-80.213L434.2,179.053v20.48     v1.707l-12.8-6.827c-0.335-0.223-0.685-0.414-1.045-0.578L293.4,123.587c-2.005-1.337-4.53-1.611-6.762-0.853     C286.112,122.733,285.56,122.733,284.867,122.733z M16.067,208.067H24.6H127v8.533c0,3.413,1.707,5.973,4.267,6.827     c2.56,1.707,5.973,1.707,8.533,0l12.8-6.827v25.6h-128h-8.533V208.067z M152.6,259.267V421.4H33.133V259.267H152.6z      M33.133,438.467H152.6v17.067H33.133V438.467z M169.667,250.733v-43.52l119.467-66.56L408.6,207.555v43.179v34.133v102.4v68.267     h-59.733V310.467c0-5.12-3.413-8.533-8.533-8.533h-102.4c-5.12,0-8.533,3.413-8.533,8.533v145.067h-59.733V250.733z      M246.467,455.533V319H331.8v136.533H246.467z M425.667,455.533v-17.067h51.2v17.067H425.667z M476.867,421.4h-51.2v-25.6h25.6     c5.12,0,8.533-3.413,8.533-8.533v-102.4c0-5.12-3.413-8.533-8.533-8.533h-25.6v-17.067h51.2V421.4z M493.933,242.2H485.4h-59.733     v-25.088l12.8,7.168c2.242,1.495,5.138,1.68,7.542,0.557c0.39-0.126,0.733-0.299,0.991-0.557c2.56-1.707,4.267-4.267,4.267-7.68     v-8.533H485.4h8.533V242.2z" fill="white" />
			<path d="M314.733,378.733H306.2c-5.12,0-8.533,3.413-8.533,8.533s3.413,8.533,8.533,8.533h8.533c5.12,0,8.533-3.413,8.533-8.533     S319.853,378.733,314.733,378.733z" fill="white" />
			<path d="M237.933,267.8h102.4c5.12,0,8.533-3.413,8.533-8.533V242.2c0-33.28-26.453-59.733-59.733-59.733     S229.4,208.92,229.4,242.2v17.067C229.4,264.387,232.813,267.8,237.933,267.8z M246.467,242.2     c0-23.893,18.773-42.667,42.667-42.667c23.893,0,42.667,18.773,42.667,42.667v8.533h-85.333V242.2z" fill="white" />
		</g>
	</g>
</g>
<g>
</g>
<g>
</g>
<g>
</g>
<g>
</g>
<g>
</g>
<g>
</g>
<g>
</g>
<g>
</g>
<g>
</g>
<g>
</g>
<g>
</g>
<g>
</g>
<g>
</g>
<g>
</g>
<g>
</g>
</svg>
