<?xml version="1.0" encoding="UTF-8"?>
<svg width="112px" height="112px" viewBox="0 0 112 112" version="1.1" xmlns="http://www.w3.org/2000/svg" xmlns:xlink="http://www.w3.org/1999/xlink">
    <!-- Generator: Sketch 41.1 (35376) - http://www.bohemiancoding.com/sketch -->
    <title>Slice</title>
    <desc>Created with Sketch.</desc>
    <defs></defs>
    <g id="Page-1" stroke="none" stroke-width="1" fill="none" fill-rule="evenodd">
        <g id="Box" transform="translate(11.000000, 8.000000)" stroke-width="3.5">
            <path d="M4.88359026,20.4197067 C4.39024326,20.6662815 4.37990816,21.0811138 4.8588365,21.3453396 L43.804138,42.8315446 C44.2838139,43.0961828 45.0687508,43.0929561 45.5463682,42.8303717 L86.5676043,20.2777246 C87.0501356,20.0124387 87.0386569,19.5963967 86.5537611,19.3543566 L47.6464864,-0.0665617233 C47.1563097,-0.311237848 46.3628602,-0.31162494 45.8656592,-0.0631239777 L4.88359026,20.4197067 Z" id="Path-3" stroke="#FAFAFA"></path>
            <path d="M1.850112,34.4853608 C1.36423863,34.2173034 0.959793555,34.4438956 0.946373871,35.0076321 L0.023986571,73.7554391 C0.0107391536,74.3119389 0.399400569,74.9729284 0.879751558,75.2253195 L36.9643057,94.1852477 C37.4501791,94.4405404 37.8549548,94.2008732 37.8685291,93.6445504 L38.7899458,55.8815919 C38.8034612,55.3276803 38.4150171,54.658296 37.9346661,54.3932854 L1.850112,34.4853608 Z" id="Path-4" stroke="#FFFFFF"></path>
            <path d="M52.8981498,55.4418841 C52.4021154,55.6894842 52,56.3340993 52,56.8978358 L52,95.6456427 C52,96.2021426 52.3891595,96.4434175 52.8751203,96.1813594 L87.9985765,77.2407653 C88.4818921,76.9801336 88.8845944,76.3222271 88.8981687,75.7659042 L89.8195854,38.0029457 C89.8331008,37.4490341 89.4446567,37.1993644 88.9459074,37.4483196 L52.8981498,55.4418841 Z" id="Path-5" stroke="#FFFFFF"></path>
        </g>
    </g>
</svg>